HIERARCHY
ROOT Hips
{
	OFFSET 0.00000 0.00000 0.00000
	CHANNELS 6 Xposition Yposition Zposition Zrotation Yrotation Xrotation 
	JOINT LHipJoint
	{
		OFFSET 0 0 0
		CHANNELS 3 Zrotation Yrotation Xrotation
		JOINT LeftUpLeg
		{
			OFFSET 1.41261 -1.82971 0.84908
			CHANNELS 3 Zrotation Yrotation Xrotation
			JOINT LeftLeg
			{
				OFFSET 2.52554 -6.93888 0.00000
				CHANNELS 3 Zrotation Yrotation Xrotation
				JOINT LeftFoot
				{
					OFFSET 2.56654 -7.05152 0.00000
					CHANNELS 3 Zrotation Yrotation Xrotation
					JOINT LeftToeBase
					{
						OFFSET 0.21698 -0.59616 1.85369
						CHANNELS 3 Zrotation Yrotation Xrotation
						End Site
						{
							OFFSET 0.00000 -0.00000 0.97832
						}
					}
				}
			}
		}
	}
	JOINT RHipJoint
	{
		OFFSET 0 0 0
		CHANNELS 3 Zrotation Yrotation Xrotation
		JOINT RightUpLeg
		{
			OFFSET -1.12808 -1.82971 0.84907
			CHANNELS 3 Zrotation Yrotation Xrotation
			JOINT RightLeg
			{
				OFFSET -2.53425 -6.96280 0.00000
				CHANNELS 3 Zrotation Yrotation Xrotation
				JOINT RightFoot
				{
					OFFSET -2.58413 -7.09983 0.00000
					CHANNELS 3 Zrotation Yrotation Xrotation
					JOINT RightToeBase
					{
						OFFSET -0.26437 -0.72636 1.92241
						CHANNELS 3 Zrotation Yrotation Xrotation
						End Site
						{
							OFFSET -0.00000 -0.00000 1.02667
						}
					}
				}
			}
		}
	}
	JOINT LowerBack
	{
		OFFSET 0 0 0
		CHANNELS 3 Zrotation Yrotation Xrotation
		JOINT Spine
		{
			OFFSET -0.02096 2.02288 -0.14752
			CHANNELS 3 Zrotation Yrotation Xrotation
			JOINT Spine1
			{
				OFFSET 0.03477 2.03136 -0.02358
				CHANNELS 3 Zrotation Yrotation Xrotation
				JOINT Neck
				{
					OFFSET 0 0 0
					CHANNELS 3 Zrotation Yrotation Xrotation
					JOINT Neck1
					{
						OFFSET 0.00174 1.74359 0.19336
						CHANNELS 3 Zrotation Yrotation Xrotation
						JOINT Head
						{
							OFFSET -0.03054 1.76140 -0.17751
							CHANNELS 3 Zrotation Yrotation Xrotation
							End Site
							{
								OFFSET -0.00863 1.77239 -0.08120
							}
						}
					}
				}
				JOINT LeftShoulder
				{
					OFFSET 0 0 0
					CHANNELS 3 Zrotation Yrotation Xrotation
					JOINT LeftArm
					{
						OFFSET 3.68685 1.32687 -0.67367
						CHANNELS 3 Zrotation Yrotation Xrotation
						JOINT LeftForeArm
						{
							OFFSET 4.76468 -0.00000 -0.00000
							CHANNELS 3 Zrotation Yrotation Xrotation
							JOINT LeftHand
							{
								OFFSET 3.52712 -0.00000 -0.00000
								CHANNELS 3 Zrotation Yrotation Xrotation
								JOINT LeftFingerBase
								{
									OFFSET 0 0 0
									CHANNELS 3 Zrotation Yrotation Xrotation
									JOINT LeftHandIndex1
									{
										OFFSET 0.85956 -0.00000 -0.00000
										CHANNELS 3 Zrotation Yrotation Xrotation
										End Site
										{
											OFFSET 0.69300 -0.00000 -0.00000
										}
									}
								}
								JOINT LThumb
								{
									OFFSET 0 0 0
									CHANNELS 3 Zrotation Yrotation Xrotation
									End Site
									{
										OFFSET 0.70358 -0.00000 0.70358
									}
								}
							}
						}
					}
				}
				JOINT RightShoulder
				{
					OFFSET 0 0 0
					CHANNELS 3 Zrotation Yrotation Xrotation
					JOINT RightArm
					{
						OFFSET -3.31304 1.28268 -0.97357
						CHANNELS 3 Zrotation Yrotation Xrotation
						JOINT RightForeArm
						{
							OFFSET -4.90577 -0.00000 -0.00000
							CHANNELS 3 Zrotation Yrotation Xrotation
							JOINT RightHand
							{
								OFFSET -3.42692 -0.00000 0.00000
								CHANNELS 3 Zrotation Yrotation Xrotation
								JOINT RightFingerBase
								{
									OFFSET 0 0 0
									CHANNELS 3 Zrotation Yrotation Xrotation
									JOINT RightHandIndex1
									{
										OFFSET -0.74096 -0.00000 -0.00000
										CHANNELS 3 Zrotation Yrotation Xrotation
										End Site
										{
											OFFSET -0.59738 -0.00000 -0.00000
										}
									}
								}
								JOINT RThumb
								{
									OFFSET 0 0 0
									CHANNELS 3 Zrotation Yrotation Xrotation
									End Site
									{
										OFFSET -0.60650 -0.00000 0.60650
									}
								}
							}
						}
					}
				}
			}
		}
	}
}
MOTION
Frames: 13
Frame Time: 0.0555556
0.00 0.00 0.00 -2.5452 35.8927 0.6772 0.0000 0.0000 0.0000 -12.5439 -0.3745 -7.8404 19.4629 19.9931 88.4294 87.4868 -89.2283 -159.4440 1.1055 -6.6805 -18.7723 0.0000 0.0000 0.0000 21.9399 16.0170 -46.2589 -13.5906 -18.9851 70.9502 -1.4584 -1.9551 -23.5957 -0.9871 -6.3237 17.7266 -0.3958 -3.4807 17.3811 4.5689 -4.1978 0.0185 6.2632 -1.8525 -9.3585 1.0477 4.5097 -14.1994 -5.3291 6.0308 -1.7466 -1.5283 2.8554 2.1036 -0.0000 0.0000 0.0000 -95.5834 8.4785 39.6924 54.5649 -54.6785 -29.8606 -0.0000 0.0000 -15.2650 23.1445 -30.2007 -12.1351 -7.1250 0.0000 -0.0000 -4.5781 -2.2610 4.7701 -0.0000 0.0000 0.0000 88.3897 -4.4029 20.9847 -24.7169 35.9132 -8.1232 0.0000 -0.0000 -10.3826 -12.9128 -32.9710 7.1120 7.1250 -0.0000 -0.0000 23.3616 -62.1099 -10.0147
0.00 0.00 0.00 -3.4836 36.4113 -0.7236 0.0000 0.0000 0.0000 -11.0761 -1.6439 -14.8103 17.5542 19.8560 82.8326 46.8139 -48.5707 -169.9882 1.0446 -6.4996 -18.2411 0.0000 0.0000 0.0000 24.0229 13.9468 -41.8621 -12.9745 -18.7730 69.0464 -1.7383 -1.1815 -25.3789 -1.1200 -6.7227 18.8964 0.4971 -3.3884 18.0503 4.6182 -3.8506 -0.3671 5.8133 -1.6927 -10.2582 1.1258 4.3326 -14.6382 -5.5066 5.8235 -0.9605 -1.6031 2.7235 2.4553 0.0000 -0.0000 0.0000 -93.8985 10.2292 40.9385 60.1997 -56.3629 -34.5073 -0.0000 0.0000 -13.2825 22.4591 -30.8295 -11.9613 -7.1250 0.0000 -0.0000 -5.0624 -2.7604 5.3208 0.0000 -0.0000 0.0000 88.3007 -2.6122 25.3590 -29.9582 40.8575 -11.3823 0.0000 -0.0000 -10.4637 -12.6240 -30.5179 6.4885 7.1250 -0.0000 -0.0000 21.5721 -59.7986 -8.0174
0.00 0.00 0.00 -6.3189 39.1051 -5.9259 0.0000 0.0000 0.0000 -7.1705 -7.0472 -31.4511 15.6118 19.5319 77.0728 39.9660 -7.2007 -174.2010 1.3190 -7.2739 -20.5293 0.0000 0.0000 0.0000 29.1071 4.0820 -26.4269 -9.5563 -17.1527 57.9950 -2.0069 -0.3237 -26.9379 -1.0222 -6.4318 18.0426 3.6626 -2.5171 18.5155 4.5839 -1.9620 -0.5315 3.5151 -0.9481 -10.9913 0.0339 2.6048 -15.7997 -4.4394 3.7792 1.5947 -1.1890 1.6809 3.4302 0.0000 -0.0000 0.0000 -89.6581 10.0825 43.3481 69.3751 -58.3300 -42.2385 -0.0000 0.0000 -5.2780 18.0039 -34.7709 -10.5002 -7.1250 0.0000 -0.0000 -8.1090 -5.8283 8.9769 0.0000 -0.0000 0.0000 83.8259 1.3755 35.1164 -52.1856 53.8398 -27.9293 0.0000 -0.0000 -10.3967 -7.9730 -26.9295 3.6295 7.1250 -0.0000 -0.0000 23.6976 -55.5182 -6.3772
0.00 0.00 0.00 -6.2968 40.3454 -7.1578 0.0000 0.0000 0.0000 -6.8118 -9.4383 -34.4649 17.2470 19.8173 81.9271 45.4806 -41.6415 -176.4525 1.5098 -7.7602 -21.9880 0.0000 0.0000 0.0000 29.4021 0.1639 -21.1360 -8.2304 -16.2861 53.3883 -1.7281 -0.5505 -25.0743 -0.9833 -6.3118 17.6919 3.5168 -2.2111 17.9012 4.4149 -1.6581 -0.3958 3.2848 -0.8071 -10.4968 -0.3695 2.0909 -15.8770 -3.6503 3.1496 2.5287 -0.9018 1.3834 3.7341 -0.0000 0.0000 0.0000 -88.9210 10.0986 42.6050 71.1855 -58.6193 -43.7817 -0.0000 0.0000 -5.4894 16.1657 -34.4575 -9.3143 -7.1250 0.0000 -0.0000 -9.0720 -5.1684 9.9734 -0.0000 0.0000 0.0000 82.0462 1.9858 36.4179 -60.4404 56.4262 -34.7078 0.0000 -0.0000 -7.4962 -8.8808 -24.8454 3.7562 7.1250 -0.0000 -0.0000 21.5247 -53.7721 -4.8151
0.00 0.00 0.00 -5.1465 41.1476 -7.8507 0.0000 0.0000 0.0000 -7.6801 -11.2140 -35.0444 19.3703 19.9905 88.1587 79.3412 -75.3989 173.8780 1.4817 -7.6908 -21.7787 0.0000 0.0000 0.0000 28.3459 -2.6167 -15.7055 -7.0374 -15.3633 49.0157 -1.0833 -1.3687 -20.2040 -0.6908 -5.3134 14.8046 2.4581 -1.7091 17.2275 3.9996 -1.3163 -0.1399 3.2937 -0.6118 -9.8182 -0.6177 1.6381 -16.0103 -3.1903 2.6024 4.2033 -0.6834 1.0988 3.8576 0.0000 -0.0000 0.0000 -88.6354 10.6422 40.7947 71.9019 -58.7255 -44.3937 -0.0000 0.0000 -6.0493 15.3487 -33.8900 -8.7017 -7.1250 0.0000 -0.0000 -9.4530 -4.4595 10.2960 0.0000 -0.0000 0.0000 80.4329 2.6606 37.1024 -67.6149 58.0193 -40.7429 0.0000 -0.0000 -6.5925 -10.4464 -22.6403 4.0596 7.1250 -0.0000 -0.0000 18.8372 -51.9750 -3.3327
0.00 0.00 0.00 -6.3062 40.7682 -10.3943 0.0000 0.0000 0.0000 -6.4869 -11.1866 -34.0647 19.5125 19.9943 88.5746 -31.0467 -70.7270 6.2811 1.9232 -8.7043 -24.8746 0.0000 0.0000 0.0000 29.2498 -4.1825 -10.1066 -6.0176 -14.4454 45.0525 -0.3659 -2.4527 -12.5922 -0.3643 -3.8769 10.7307 3.2143 -1.2064 16.8617 4.1114 -0.5227 0.2697 2.7573 -0.2646 -9.1954 -1.1975 1.1427 -15.6796 -2.3215 1.9991 5.3283 -0.3682 0.8234 4.1293 0.0000 0.0000 0.0000 -88.4849 11.4286 38.5214 71.9012 -58.7254 -44.3930 -0.0000 0.0000 -6.9295 15.3985 -31.8822 -8.2767 -7.1250 0.0000 -0.0000 -9.2057 -2.4749 9.7188 0.0000 0.0000 0.0000 78.9494 3.3781 37.3715 -72.6713 58.8344 -45.0516 0.0000 -0.0000 -4.9680 -12.4670 -21.4175 4.6157 7.1250 -0.0000 -0.0000 16.3305 -51.1364 -2.5260
0.00 0.00 0.00 -5.5198 37.7488 -10.6054 0.0000 0.0000 0.0000 -6.5968 -8.7871 -32.8535 17.0819 19.7946 81.4398 -4.5966 -36.6223 2.1184 1.9655 -8.7938 -25.1524 0.0000 0.0000 0.0000 28.5795 -3.0036 -6.1604 -5.3657 -13.7841 42.3796 0.0106 -2.2978 -2.3169 -0.1254 -2.2832 6.2890 3.0930 0.2029 16.0853 3.8983 1.2419 0.3679 2.1552 0.5803 -8.6831 -1.0198 1.0368 -15.3384 -2.5175 1.8703 6.8309 -0.4654 0.7302 4.5451 -0.0000 -0.0000 0.0000 -88.5656 12.6668 35.5799 71.5129 -58.6684 -44.0613 -0.0000 0.0000 -7.7742 16.2577 -29.7510 -8.2341 -7.1250 0.0000 -0.0000 -8.4994 -0.4911 8.6676 -0.0000 -0.0000 0.0000 78.2038 3.5412 36.9208 -75.8696 59.2319 -47.7942 0.0000 -0.0000 -3.7646 -13.6216 -19.6381 4.6559 7.1250 -0.0000 -0.0000 14.4987 -49.5813 -1.6691
0.00 0.00 0.00 -6.6249 36.9904 -13.3158 0.0000 0.0000 0.0000 -7.0375 -8.4697 -24.6399 9.1628 16.9113 56.6513 0.0048 0.1472 -1.3728 1.6712 -8.1447 -23.1545 0.0000 0.0000 0.0000 27.0725 -6.3444 1.3122 -3.2930 -11.1550 32.8043 -1.2801 -7.6301 20.2247 -0.5546 -4.7705 13.2551 5.5698 0.4341 13.0230 3.5382 1.7352 -0.0971 0.2840 0.7260 -7.3851 -1.7519 0.8624 -15.8676 -1.1674 1.7976 14.0295 0.0956 0.6692 6.8935 -0.0000 0.0000 0.0000 -89.1706 18.9200 24.2242 69.4065 -58.3353 -42.2652 -0.0000 0.0000 -12.8521 20.4405 -23.6206 -8.4934 -7.1250 0.0000 -0.0000 -5.4097 5.0561 4.9344 -0.0000 0.0000 0.0000 77.0395 2.0064 34.5780 -81.0617 59.6960 -52.2671 0.0000 -0.0000 -3.4863 -14.6313 -20.2823 5.1710 7.1250 -0.0000 -0.0000 13.7870 -50.3727 -1.8564
0.00 0.00 0.00 -6.0997 35.2053 -12.3600 0.0000 0.0000 0.0000 -8.2818 -6.4499 -19.9804 4.8143 13.1716 40.0142 -0.0036 -1.1551 -0.0488 1.7717 -8.3733 -23.8539 0.0000 0.0000 0.0000 25.9974 -7.6387 -2.7899 -4.2194 -12.4468 37.3313 0.2840 -17.1764 9.0984 -1.7896 -8.4134 23.9769 4.8198 0.9385 10.7120 3.4969 2.1650 -1.1346 0.6185 0.9536 -7.1929 -1.7395 1.1426 -17.1194 -0.9483 2.2957 18.6014 0.2520 0.8728 8.6247 -0.0000 0.0000 0.0000 -90.3561 25.3331 12.0844 68.0931 -58.1066 -41.1487 -0.0000 0.0000 -16.1611 23.4270 -20.6069 -8.6709 -7.1250 0.0000 -0.0000 -3.2492 7.7259 2.7875 -0.0000 0.0000 0.0000 74.8571 -0.1496 30.6699 -89.0325 59.9965 -59.1621 0.0000 -0.0000 -5.5568 -7.8228 -26.6708 3.5289 7.1250 -0.0000 -0.0000 23.6748 -55.2534 -6.2146
0.00 0.00 0.00 -2.4641 33.9630 -12.2476 0.0000 0.0000 0.0000 -13.5271 -4.5002 -10.5391 1.3520 7.3607 20.7885 -0.0396 -4.5734 4.7631 2.6130 -10.0406 -29.1083 0.0000 0.0000 0.0000 21.3192 -8.1561 -7.9805 -3.6553 -11.6870 34.6336 0.6189 -17.3106 4.8599 -2.0098 -8.8865 25.4408 0.8981 0.9437 12.2735 2.5646 1.5958 -0.4705 1.9145 0.8031 -7.4514 -0.7335 2.4223 -18.4500 -1.0744 3.8675 19.5966 0.2655 1.6478 9.2213 -0.0000 0.0000 0.0000 -90.8029 32.3675 -3.6566 60.5055 -56.4431 -34.7621 -0.0000 0.0000 -16.2072 25.1949 -20.5553 -9.3795 -7.1250 0.0000 -0.0000 -2.1173 7.4829 1.8248 -0.0000 0.0000 0.0000 68.5106 -4.6338 23.9402 -98.6673 59.7142 -67.4989 0.0000 -0.0000 -6.8720 -9.2950 -29.4218 4.5966 7.1250 -0.0000 -0.0000 24.1456 -58.0527 -8.0166
0.00 0.00 0.00 -1.2788 37.3006 -12.7232 0.0000 0.0000 0.0000 -17.5133 -2.0675 -5.6069 0.2002 2.8809 7.9474 0.8664 -5.7302 20.5656 4.8186 -13.1766 -40.0330 0.0000 0.0000 0.0000 17.8141 -4.0373 -12.4938 -1.1561 -6.8265 19.2023 -0.2954 -12.6363 12.3398 -0.8915 -6.0184 16.8377 -2.6715 0.4886 11.6583 1.3958 0.3895 -0.1422 2.9161 0.3095 -6.7315 0.0674 2.8083 -17.1448 -0.5696 4.1010 20.7135 0.3301 1.8811 9.3760 0.0000 -0.0000 0.0000 -73.2099 38.6512 7.3299 39.8946 -48.0073 -18.3608 -0.0000 0.0000 -13.3219 23.1156 -19.0874 -7.9464 -7.1250 0.0000 -0.0000 -3.3121 9.3891 2.7321 0.0000 -0.0000 0.0000 56.6095 -21.1278 15.3047 -97.6772 59.7761 -66.6436 0.0000 -0.0000 -13.5901 -13.9097 -32.8045 7.6419 7.1250 -0.0000 -0.0000 22.1383 -62.2097 -9.5135
0.00 0.00 0.00 -5.3917 40.2344 -19.6386 0.0000 0.0000 0.0000 -16.8327 0.3110 -7.1152 2.5159 9.8668 28.5465 0.3210 -7.2434 -10.5693 8.9189 -16.7553 -55.8093 0.0000 0.0000 0.0000 19.9825 -6.8351 -12.7272 -2.3654 -9.5890 27.6557 -0.8391 -6.4483 16.3398 -0.7146 -5.4024 15.0599 -2.0459 0.1394 12.6502 1.7322 0.0329 1.3635 2.9741 0.0935 -5.6640 -0.3087 2.2588 -15.1836 -0.0135 3.2928 19.8770 0.4422 1.5563 8.7082 0.0000 0.0000 0.0000 -68.8357 37.1038 10.2510 40.2123 -48.1952 -18.5973 -0.0000 0.0000 -9.7437 21.4296 -23.2706 -8.8143 -7.1250 0.0000 -0.0000 -4.7630 5.2557 4.3220 0.0000 0.0000 0.0000 55.7819 -28.8526 11.9688 -90.5128 59.9990 -60.4441 0.0000 -0.0000 -9.9531 -16.1790 -35.8021 9.6326 7.1250 -0.0000 -0.0000 22.6536 -65.5400 -11.5052
0.00 0.00 0.00 -6.3767 40.8344 -20.3511 0.0000 0.0000 0.0000 -16.7980 -3.9529 -14.3916 7.7482 15.9309 51.6504 0.3321 9.5276 -18.1987 5.5200 -13.9465 -43.0234 0.0000 0.0000 0.0000 22.3254 -1.2585 -18.0559 -7.1748 -15.4774 49.5325 -0.4576 -1.4223 -13.3738 -0.3057 -3.5546 9.8268 -3.5423 0.4711 14.2807 2.0700 0.2443 1.4909 4.1613 0.2548 -6.4563 -0.4646 2.3931 -14.4166 -0.2931 3.5462 18.7003 0.3800 1.6458 8.1744 0.0000 -0.0000 0.0000 -77.0408 28.6635 -3.2016 38.6004 -47.2184 -17.4049 -0.0000 0.0000 -7.8516 19.7534 -23.6438 -8.1953 -7.1250 0.0000 -0.0000 -5.8375 5.1432 5.3190 0.0000 -0.0000 0.0000 65.7839 -26.1749 5.9006 -85.8050 59.9334 -56.3679 0.0000 -0.0000 -6.8736 -18.1744 -37.1274 11.2080 7.1250 -0.0000 -0.0000 21.9125 -67.3160 -11.9992
